# xmcd
#
# Track frame offsets:
#	187
#	11387
#	23370
#	36475
#	45840
#	52227
#	59325
#	75315
#	98832
#	106652
#	115407
#	132547
#	147115
#	156527
#	168540
#	176482
#	185185
#	201362
#
# Disc length: 2918 seconds
#
# Revision: 3
# Processed by: cddbd v1.5.2PL0 Copyright (c) Steve Scherf et al.
# Submitted via: EZCDAudioConverter 2.1.7.1
#
DISCID=f50b6412
DTITLE=Howard Shore - Naked Lunch
DYEAR=1992
DGENRE=
TTITLE0=Howard Shore - Naked Lunch
TTITLE1=Howard Shore - Ornette Coleman - Hauser And O'Brien - Bugpowder
TTITLE2=Howard Shore - Mugwumps
TTITLE3=Howard Shore - Centipede
TTITLE4=Howard Shore - The Black Meat
TTITLE5=Howard Shore - Thelonious Monk - Simpatico - Misterioso
TTITLE6=Howard Shore - Fadela's Coven
TTITLE7=Howard Shore - Interzone Suite
TTITLE8=Howard Shore - William Tell
TTITLE9=Howard Shore - Mujahaddin
TTITLE10=Ornette Coleman - Intersong
TTITLE11=Howard Shore - Dr. Benway
TTITLE12=Howard Shore - Clark Nova Dies
TTITLE13=Ornette Coleman - Ballad - Joan
TTITLE14=Ornette Coleman - Cloquet's Parrots - Midnight Sunrise
TTITLE15=Howard Shore - Nothing Is True - Eveything Is Permitted
TTITLE16=Howard Shore - Welcome To Annexia
TTITLE17=Ornette Coleman - Writeman
EXTD=
EXTT0=
EXTT1=
EXTT2=
EXTT3=
EXTT4=
EXTT5=
EXTT6=
EXTT7=
EXTT8=
EXTT9=
EXTT10=
EXTT11=
EXTT12=
EXTT13=
EXTT14=
EXTT15=
EXTT16=
EXTT17=
PLAYORDER=
